<svg xmlns="http://www.w3.org/2000/svg" width="542.029" height="402.865" viewBox="0 0 542.029 402.865"><g transform="translate(-22.782 -46)"><path d="M496.138,436.616H484.4l-5.586-45.29h17.33Z" fill="#ffb6b6"/><path d="M496.551,448.865H460.444v-.457A14.055,14.055,0,0,1,474.5,434.353h0l6.6-5,12.306,5h3.152Z" fill="#061d35"/><path d="M444.083,436.616H432.341l-5.586-45.29h17.33Z" fill="#ffb6b6"/><path d="M444.5,448.865H408.389v-.457a14.055,14.055,0,0,1,14.054-14.054h0l6.6-5,12.306,5H444.5Z" fill="#061d35"/><path d="M438.488,183.865,506.23,185.1s12.179,17.235,2.88,41.548l1.042,6.771-4.278,10.464-2.139,32.008,2.139,4.924-1.426,9.233s5.7,60.938-8.557,91.714l-17.114-.616-6.418-80.3,3.565-5.877-.713-2.462-8.557-36.932L458.1,274.656v10.6l-7.844,7.864s2.852,72.633-4.992,87.406H426.1l-7.223-98.485,7.131-57.245-1.426-3.693,2.139-1.847L425.3,213.1l13.192-29.238Z" transform="translate(0 31.361)" fill="#061d35"/><path d="M467.367,53.238l20.679-4.5,5.7,12.218s29.515,14.148,30.941,33.44c0,0,4,15.434.435,22.507s-18.54,29.581-18.54,29.581,13.548,39.227,9.983,41.157-88.422-1.929-88.422-5.788S442.27,137.48,442.27,137.48l2.992-69.452L464.515,61.6l2.852-8.36h0Z" transform="translate(0 45.178)" fill="#06223e"/><path d="M522.5,229.263a8.724,8.724,0,0,1-3.132-13.005l-11.507-78.893,15.931.51,8.333,76.869a8.771,8.771,0,0,1-9.625,14.52Z" transform="translate(0 30)" fill="#ffb6b6"/><path d="M371.338,192.028a8.724,8.724,0,0,1,6.412-11.74L422.2,114.1l11.462,11.075-45.444,62.554a8.771,8.771,0,0,1-16.882,4.3Z" transform="translate(3 35.68)" fill="#ffb6b6"/><path d="M493.468,117.466c-4.5-15.464,2.975-31.24,19.08-31.164,4.655.022,8.271,1.373,9.274,5.112,3.508,13.086,5.421,32.841,5.421,32.841l4.162,21.032-2.521,4.367,5.255,14.095-2.549,6.668-.551,34.052-12.835-.713L504.061,177.8l-5.408-3.216s4.342-41.972-4.295-54.057l-.89-3.058h0Z" transform="translate(0 15.178)" fill="#06223e"/><path d="M435.975,79.41c7.505-14.25,26.72-17.625,38.251-6.381,3.333,3.25,5,6.734,3.119,10.119-6.568,11.85-21.793,24.609-21.793,24.609L436.8,137.9l-4.847,1.39-6.012,13.789-12.884,15.148-17.064,9-9.983-9.983,2.12-12.833,25.69-34.23s18.484-23.257,20.668-37.95l1.484-2.817h0Z" transform="translate(0 45.178)" fill="#06223e"/><path d="M471.3,49.56c.472.057.943.1,1.412.121a19.326,19.326,0,0,0,4.285-.238,20.227,20.227,0,1,0-23.249-22.917c-.025.168-.051.328-.069.5A20.235,20.235,0,0,0,471.3,49.56h0Z" transform="translate(0 46)" fill="#ffb6b6"/><path d="M449.187,25.783c2.871,1.42,7.562-3.044,9.358-.476.292-.555.614-1.092.933-1.6.288-.454.7-1.424,1.177-1.59a7.369,7.369,0,0,0,.156,5.118c2.832,1.058,6.539-1.284,9.16-4.055,4.116-4.344,10.836,6.8,9.247,12.56,2.022-2.469,6.411-1.077,7.9,1.747s-1.025,5.073-1.562,8.215l4.054-.515c2.558-2.491,2.379-6.689,4.485-9.576,3.518-4.832,4.881-9.762,2.237-14.749-2.346-4.409-2.565-10.116-6.869-12.658,1.881-.919-4.807.517-3.021-2.479s-7.769-3.353-8.393-1.751C475.314.7,472.558-1.452,469.2,1.169c-3.3,2.578-2.96,5.288-6.837,5.046-1.819-.113-1.62,3.28-2.7,4.759s-5.255,2.415-5.459,2.258c-1.1-.864-4.86,6.49-4.86,6.49s-3.046,4.624-.151,6.062h0Z" transform="translate(0 46)" fill="#2f2e41"/><path d="M196.155,154.13a123,123,0,1,1,0,246c-67.931,0-161.945-67.351-123-123s55.069-123,123-123Z" fill="#b1b8fc"/><path d="M360.782,159.982a2,2,0,0,0-2,2v64a2,2,0,0,0,4,0v-64A2,2,0,0,0,360.782,159.982Z" fill="#3f3d56"/><path d="M24.782,111.982a2,2,0,0,0-2,2v16a2,2,0,0,0,4,0v-16a2,2,0,0,0-2-2Z" fill="#061d35"/><path d="M24.782,159.982a2,2,0,0,0-2,2v31a2,2,0,0,0,4,0v-31A2,2,0,0,0,24.782,159.982Z" fill="#061d35"/><path d="M24.782,203.982a2,2,0,0,0-2,2v31a2,2,0,1,0,4,0v-31A2,2,0,0,0,24.782,203.982Z" fill="#061d35"/><path d="M510.551,432.608a2.269,2.269,0,0,0,1.645-3.933l-.156-.618.062-.148a6.094,6.094,0,0,1,11.241.042c1.839,4.428,4.179,8.864,4.756,13.546a18.029,18.029,0,0,1-.316,6.2,72.282,72.282,0,0,0,6.575-30.021,69.774,69.774,0,0,0-.433-7.783q-.359-3.178-.995-6.31a73.119,73.119,0,0,0-14.5-30.99,19.459,19.459,0,0,1-8.093-8.4,14.843,14.843,0,0,1-1.35-4.056c.394.052,1.486-5.949,1.188-6.317.549-.833,1.532-1.247,2.131-2.06,2.982-4.043,7.091-3.337,9.236,2.157,4.582,2.313,4.627,6.148,1.815,9.837-1.789,2.347-2.035,5.522-3.6,8.035.161.207.329.407.491.614a73.589,73.589,0,0,1,7.681,12.169,30.592,30.592,0,0,1,1.826-14.21c1.748-4.217,5.025-7.769,7.91-11.415a6.279,6.279,0,0,1,11.184,3.083q.009.081.017.161-.643.363-1.259.77a3.078,3.078,0,0,0,1.241,5.6l.063.01a30.634,30.634,0,0,1-.807,4.579c3.7,14.316-4.29,19.53-15.7,19.764-.252.129-.5.258-.749.381a75.116,75.116,0,0,1,4.043,19.028,71.237,71.237,0,0,1-.052,11.5l.019-.136a18.826,18.826,0,0,1,6.427-10.87c4.946-4.063,11.933-5.559,17.268-8.824a3.533,3.533,0,0,1,5.411,3.437l-.022.143a20.674,20.674,0,0,0-2.319,1.117q-.643.363-1.259.77a3.078,3.078,0,0,0,1.241,5.6l.063.01.129.019a30.653,30.653,0,0,1-5.639,8.829c-2.315,12.5-12.256,13.683-22.89,10.044h-.006a75.093,75.093,0,0,1-5.044,14.726H511c-.065-.2-.123-.407-.181-.607a20.473,20.473,0,0,0,4.986-.3c-1.337-1.641-2.674-3.294-4.011-4.935a1.121,1.121,0,0,1-.084-.1c-.678-.84-1.363-1.673-2.041-2.512h0a29.99,29.99,0,0,1,.879-7.64h0Z" fill="#b1b8fc"/><path d="M142.376,268.839H73.155v-2h69.221a10.918,10.918,0,0,0,10.905-10.906v-46.8h2v46.8a12.92,12.92,0,0,1-12.905,12.906Z" fill="#f32270"/><rect width="157.436" height="2" transform="translate(117.019 370.294)" fill="#f32270"/><path d="M374.343,255.466H290.251a8.239,8.239,0,0,1-8.23-8.23V164.17a8.239,8.239,0,0,1,8.23-8.23h84.092a8.239,8.239,0,0,1,8.23,8.23v83.066A8.239,8.239,0,0,1,374.343,255.466Z" fill="#e8dfff"/><path d="M305.912,158.392a21.438,21.438,0,0,0-21.438,21.438v65.643a7.54,7.54,0,0,0,7.54,7.54h51.42a36.687,36.687,0,0,0,36.687-36.687V165.932a7.54,7.54,0,0,0-7.54-7.54H305.912Z" fill="#fff"/><path d="M354.819,182.532H309.6a1.565,1.565,0,1,1,0-3.129h45.221a1.565,1.565,0,0,1,0,3.129Z" fill="#e8dfff"/><path d="M354.819,215.9H309.6a1.565,1.565,0,1,1,0-3.129h45.221a1.565,1.565,0,0,1,0,3.129Z" fill="#e8dfff"/><path d="M373.182,199.224H291.236a1.565,1.565,0,1,1,0-3.129h81.947a1.565,1.565,0,0,1,0,3.129Z" fill="#e8dfff"/><path d="M374.019,229.461h-29.6a1.565,1.565,0,1,1,0-3.129h29.6a1.565,1.565,0,0,1,0,3.129Z" fill="#e8dfff"/><path d="M197.711,420.97H130.937a6.542,6.542,0,0,1-6.535-6.535v-65.96a6.542,6.542,0,0,1,6.535-6.535h66.775a6.542,6.542,0,0,1,6.535,6.535v65.96a6.542,6.542,0,0,1-6.535,6.535h0Z" fill="#e8dfff"/><path d="M143.372,343.887a17.024,17.024,0,0,0-17.024,17.024v52.125a5.987,5.987,0,0,0,5.987,5.987h40.831A29.132,29.132,0,0,0,202.3,389.891V349.875a5.987,5.987,0,0,0-5.987-5.987h-52.94Z" fill="#fff"/><path d="M182.208,363.055H146.3a1.242,1.242,0,1,1,0-2.485h35.908a1.242,1.242,0,0,1,0,2.485Z" fill="#e8dfff"/><path d="M182.208,389.548H146.3a1.242,1.242,0,1,1,0-2.485h35.908a1.242,1.242,0,0,1,0,2.485Z" fill="#e8dfff"/><path d="M196.79,376.311H131.718a1.242,1.242,0,1,1,0-2.485H196.79a1.242,1.242,0,0,1,0,2.485Z" fill="#e8dfff"/><path d="M197.454,400.32H173.947a1.242,1.242,0,1,1,0-2.485h23.507a1.242,1.242,0,0,1,0,2.485Z" fill="#e8dfff"/><path d="M151.04,208.626H101.657a4.838,4.838,0,0,1-4.833-4.833v-48.78a4.838,4.838,0,0,1,4.833-4.833H151.04a4.838,4.838,0,0,1,4.833,4.833v48.78a4.838,4.838,0,0,1-4.833,4.833h0Z" fill="#e8dfff"/><path d="M110.854,151.619a12.59,12.59,0,0,0-12.59,12.59v38.549a4.428,4.428,0,0,0,4.428,4.428h30.2a21.545,21.545,0,0,0,21.545-21.545V156.047a4.428,4.428,0,0,0-4.428-4.428H110.854Z" fill="#fff"/><path d="M139.575,165.8H113.019a.919.919,0,1,1,0-1.838h26.556a.919.919,0,0,1,0,1.838Z" fill="#e8dfff"/><path d="M139.575,185.388H113.019a.919.919,0,1,1,0-1.838h26.556a.919.919,0,0,1,0,1.838Z" fill="#e8dfff"/><path d="M150.358,175.6H102.235a.919.919,0,1,1,0-1.838h48.123a.919.919,0,0,1,0,1.838Z" fill="#e8dfff"/><path d="M150.85,193.354H133.465a.919.919,0,1,1,0-1.838H150.85a.919.919,0,0,1,0,1.838Z" fill="#e8dfff"/><circle cx="10" cy="10" r="10" transform="translate(285.155 250.13)" fill="#f32270"/><circle cx="10" cy="10" r="10" transform="translate(144.155 199.13)" fill="#f32270"/><circle cx="10" cy="10" r="10" transform="translate(192.155 336.13)" fill="#f32270"/><ellipse cx="8.066" cy="7.896" rx="8.066" ry="7.896" transform="translate(35.293 114.338)" fill="#b1b8fc"/><path d="M108.021,119.533H64.6a2.7,2.7,0,1,1,0-5.4h43.416a2.7,2.7,0,0,1,0,5.4Z" fill="#b1b8fc"/><path d="M141.9,128.676H64.6a2.7,2.7,0,1,1,0-5.4h77.3a2.7,2.7,0,0,1,0,5.4Z" fill="#b1b8fc"/><ellipse cx="8.066" cy="7.896" rx="8.066" ry="7.896" transform="translate(277.293 395.338)" fill="#b1b8fc"/><path d="M350.021,400.533H306.6a2.7,2.7,0,0,1,0-5.4h43.416a2.7,2.7,0,0,1,0,5.4Z" fill="#b1b8fc"/><path d="M383.9,409.676H306.6a2.7,2.7,0,0,1,0-5.4h77.3a2.7,2.7,0,0,1,0,5.4Z" fill="#b1b8fc"/><rect width="2" height="95" transform="translate(186.405 155.97)" fill="#f32270"/><circle cx="6" cy="6" r="6" transform="translate(181.405 244.97)" fill="#f32270"/><circle cx="6" cy="6" r="6" transform="translate(272.405 313.97)" fill="#f32270"/><circle cx="6" cy="6" r="6" transform="translate(110.405 231.97)" fill="#f32270"/><rect width="32.828" height="2.001" transform="matrix(1, -0.03, 0.03, 1, 81.375, 238.972)" fill="#f32270"/><path d="M327.216,342.94H277.46V319.97h2v20.97h47.756Z" fill="#f32270"/><circle cx="6" cy="6" r="6" transform="translate(107.942 297.486)" fill="#f32270"/><path d="M162.161,326.455H112.405v-22.97h2v20.97h47.756Z" fill="#f32270"/><rect width="238.982" height="2" transform="translate(75.423 280.655)" fill="#f32270"/></g></svg>